<svg width="148" height="16" viewBox="0 0 148 16" fill="none" xmlns="http://www.w3.org/2000/svg">
<g clip-path="url(#clip0_714_466)">
<path d="M16 8C16 3.58172 12.4183 0 8 0C3.58172 0 0 3.58172 0 8C0 11.993 2.92547 15.3027 6.75 15.9028V10.3125H4.71875V8H6.75V6.2375C6.75 4.2325 7.94438 3.125 9.77172 3.125C10.6467 3.125 11.5625 3.28125 11.5625 3.28125V5.25H10.5538C9.56 5.25 9.25 5.86672 9.25 6.5V8H11.4688L11.1141 10.3125H9.25V15.9028C13.0745 15.3027 16 11.993 16 8Z" fill="#282938"/>
</g>
<g clip-path="url(#clip1_714_466)">
<path d="M48.8772 14.1105C54.9134 14.1105 58.2159 9.24255 58.2159 5.02241C58.2159 4.88556 58.2128 4.74567 58.2066 4.60882C58.849 4.15669 59.4034 3.59667 59.8438 2.95507C59.2454 3.21412 58.6102 3.38331 57.9597 3.45685C58.6446 3.05732 59.1574 2.42968 59.4031 1.69027C58.7588 2.06188 58.0541 2.32402 57.3194 2.46545C56.8243 1.95354 56.1697 1.61459 55.4569 1.50101C54.744 1.38744 54.0125 1.50555 53.3756 1.83711C52.7386 2.16866 52.2316 2.69517 51.933 3.33525C51.6343 3.97533 51.5607 4.69333 51.7234 5.37822C50.4187 5.31451 49.1424 4.98468 47.9771 4.41013C46.8118 3.83557 45.7835 3.02912 44.9591 2.04304C44.54 2.74613 44.4118 3.57811 44.6004 4.3699C44.7891 5.16169 45.2805 5.85387 45.9747 6.30576C45.4535 6.28966 44.9437 6.1531 44.4875 5.90737V5.94691C44.487 6.68475 44.7491 7.39997 45.2293 7.97101C45.7094 8.54205 46.378 8.93365 47.1212 9.07925C46.6385 9.2078 46.1317 9.22653 45.6403 9.13399C45.8501 9.76853 46.2581 10.3235 46.8076 10.7215C47.3571 11.1195 48.0205 11.3406 48.7053 11.354C47.5427 12.2427 46.1065 12.7248 44.6281 12.7225C44.3659 12.7221 44.104 12.7065 43.8438 12.6757C45.3457 13.6133 47.0928 14.1114 48.8772 14.1105Z" fill="#282938"/>
</g>
<g clip-path="url(#clip2_714_466)">
<path d="M95.6875 1.44062C97.825 1.44062 98.0781 1.45 98.9188 1.4875C99.7 1.52187 100.122 1.65313 100.403 1.7625C100.775 1.90625 101.044 2.08125 101.322 2.35938C101.603 2.64062 101.775 2.90625 101.919 3.27813C102.028 3.55938 102.159 3.98438 102.194 4.7625C102.231 5.60625 102.241 5.85938 102.241 7.99375C102.241 10.1313 102.231 10.3844 102.194 11.225C102.159 12.0063 102.028 12.4281 101.919 12.7094C101.775 13.0813 101.6 13.35 101.322 13.6281C101.041 13.9094 100.775 14.0813 100.403 14.225C100.122 14.3344 99.6969 14.4656 98.9188 14.5C98.075 14.5375 97.8219 14.5469 95.6875 14.5469C93.55 14.5469 93.2969 14.5375 92.4563 14.5C91.675 14.4656 91.2531 14.3344 90.9719 14.225C90.6 14.0813 90.3313 13.9063 90.0531 13.6281C89.7719 13.3469 89.6 13.0813 89.4563 12.7094C89.3469 12.4281 89.2156 12.0031 89.1813 11.225C89.1438 10.3813 89.1344 10.1281 89.1344 7.99375C89.1344 5.85625 89.1438 5.60313 89.1813 4.7625C89.2156 3.98125 89.3469 3.55938 89.4563 3.27813C89.6 2.90625 89.775 2.6375 90.0531 2.35938C90.3344 2.07812 90.6 1.90625 90.9719 1.7625C91.2531 1.65313 91.6781 1.52187 92.4563 1.4875C93.2969 1.45 93.55 1.44062 95.6875 1.44062ZM95.6875 0C93.5156 0 93.2438 0.009375 92.3906 0.046875C91.5406 0.084375 90.9563 0.221875 90.45 0.41875C89.9219 0.625 89.475 0.896875 89.0313 1.34375C88.5844 1.7875 88.3125 2.23438 88.1063 2.75938C87.9094 3.26875 87.7719 3.85 87.7344 4.7C87.6969 5.55625 87.6875 5.82812 87.6875 8C87.6875 10.1719 87.6969 10.4438 87.7344 11.2969C87.7719 12.1469 87.9094 12.7313 88.1063 13.2375C88.3125 13.7656 88.5844 14.2125 89.0313 14.6562C89.475 15.1 89.9219 15.375 90.4469 15.5781C90.9563 15.775 91.5375 15.9125 92.3875 15.95C93.2406 15.9875 93.5125 15.9969 95.6844 15.9969C97.8563 15.9969 98.1281 15.9875 98.9813 15.95C99.8313 15.9125 100.416 15.775 100.922 15.5781C101.447 15.375 101.894 15.1 102.338 14.6562C102.781 14.2125 103.056 13.7656 103.259 13.2406C103.456 12.7313 103.594 12.15 103.631 11.3C103.669 10.4469 103.678 10.175 103.678 8.00313C103.678 5.83125 103.669 5.55938 103.631 4.70625C103.594 3.85625 103.456 3.27188 103.259 2.76562C103.063 2.23438 102.791 1.7875 102.344 1.34375C101.9 0.9 101.453 0.625 100.928 0.421875C100.419 0.225 99.8375 0.0875 98.9875 0.05C98.1313 0.009375 97.8594 0 95.6875 0Z" fill="#282938"/>
<path d="M95.6875 3.89062C93.4188 3.89062 91.5781 5.73125 91.5781 8C91.5781 10.2688 93.4188 12.1094 95.6875 12.1094C97.9563 12.1094 99.7969 10.2688 99.7969 8C99.7969 5.73125 97.9563 3.89062 95.6875 3.89062ZM95.6875 10.6656C94.2156 10.6656 93.0219 9.47188 93.0219 8C93.0219 6.52813 94.2156 5.33437 95.6875 5.33437C97.1594 5.33437 98.3531 6.52813 98.3531 8C98.3531 9.47188 97.1594 10.6656 95.6875 10.6656Z" fill="#282938"/>
<path d="M100.919 3.72793C100.919 4.25918 100.488 4.68731 99.9594 4.68731C99.4281 4.68731 99 4.25606 99 3.72793C99 3.19668 99.4313 2.76855 99.9594 2.76855C100.488 2.76855 100.919 3.19981 100.919 3.72793Z" fill="#282938"/>
</g>
<g clip-path="url(#clip3_714_466)">
<path d="M146.347 0H132.712C132.059 0 131.531 0.501783 131.531 1.12217V14.4453C131.531 15.0656 132.059 15.5705 132.712 15.5705H146.347C147 15.5705 147.531 15.0656 147.531 14.4483V1.12217C147.531 0.501783 147 0 146.347 0ZM136.278 13.2683H133.903V5.83588H136.278V13.2683ZM135.091 4.8232C134.328 4.8232 133.713 4.2241 133.713 3.48511C133.713 2.74612 134.328 2.14702 135.091 2.14702C135.85 2.14702 136.466 2.74612 136.466 3.48511C136.466 4.22106 135.85 4.8232 135.091 4.8232ZM145.166 13.2683H142.794V9.65551C142.794 8.79488 142.778 7.68488 141.559 7.68488C140.325 7.68488 140.137 8.62458 140.137 9.59469V13.2683H137.769V5.83588H140.044V6.85161H140.075C140.391 6.26772 141.166 5.65038 142.319 5.65038C144.722 5.65038 145.166 7.18918 145.166 9.19022V13.2683Z" fill="#282938"/>
</g>
<defs>
<clipPath id="clip0_714_466">
<rect width="16" height="16" fill="white"/>
</clipPath>
<clipPath id="clip1_714_466">
<rect width="16" height="15.5705" fill="white" transform="translate(43.8438)"/>
</clipPath>
<clipPath id="clip2_714_466">
<rect width="16" height="16" fill="white" transform="translate(87.6875)"/>
</clipPath>
<clipPath id="clip3_714_466">
<rect width="16" height="15.5705" fill="white" transform="translate(131.531)"/>
</clipPath>
</defs>
</svg>
