<svg width="62" height="13" viewBox="0 0 62 13" fill="none" xmlns="http://www.w3.org/2000/svg">
<g clip-path="url(#clip0_759_561)">
<path d="M13 6.5C13 2.91015 10.0899 0 6.5 0C2.91015 0 0 2.91015 0 6.5C0 9.74429 2.37694 12.4334 5.48438 12.921V8.37891H3.83398V6.5H5.48438V5.06797C5.48438 3.43891 6.45481 2.53906 7.93952 2.53906C8.65046 2.53906 9.39453 2.66602 9.39453 2.66602V4.26562H8.57492C7.7675 4.26562 7.51563 4.76671 7.51563 5.28125V6.5H9.31836L9.03018 8.37891H7.51563V12.921C10.6231 12.4334 13 9.74429 13 6.5Z" fill="white"/>
</g>
<g clip-path="url(#clip1_759_561)">
<path d="M28.3397 11.7816C33.2441 11.7816 35.9274 7.71736 35.9274 4.1939C35.9274 4.07965 35.9249 3.96285 35.9198 3.84859C36.4418 3.47111 36.8922 3.00353 37.25 2.46785C36.7639 2.68414 36.2477 2.8254 35.7192 2.8868C36.2757 2.55322 36.6924 2.02919 36.892 1.41185C36.3685 1.72212 35.7959 1.94098 35.1989 2.05906C34.7967 1.63166 34.2649 1.34867 33.6857 1.25384C33.1065 1.15901 32.5121 1.25763 31.9946 1.53445C31.4771 1.81127 31.0651 2.25086 30.8225 2.78527C30.5799 3.31969 30.52 3.91915 30.6522 4.49098C29.5922 4.43778 28.5551 4.1624 27.6083 3.6827C26.6615 3.203 25.8261 2.52968 25.1562 1.70639C24.8157 2.2934 24.7115 2.98804 24.8648 3.64911C25.0181 4.31019 25.4173 4.8881 25.9814 5.26539C25.5579 5.25195 25.1437 5.13793 24.773 4.93277V4.96578C24.7727 5.58181 24.9856 6.17896 25.3758 6.65573C25.7659 7.1325 26.3091 7.45945 26.913 7.58101C26.5207 7.68834 26.109 7.70398 25.7097 7.62672C25.8801 8.15651 26.2117 8.61988 26.6581 8.95216C27.1046 9.28444 27.6436 9.46905 28.2 9.48023C27.2554 10.2222 26.0885 10.6247 24.8873 10.6228C24.6743 10.6225 24.4615 10.6094 24.25 10.5837C25.4703 11.3666 26.8898 11.7824 28.3397 11.7816Z" fill="white"/>
</g>
<g clip-path="url(#clip2_759_561)">
<path d="M60.5377 0H49.4598C48.9291 0 48.5 0.418945 48.5 0.936914V12.0605C48.5 12.5785 48.9291 13 49.4598 13H60.5377C61.0684 13 61.5 12.5785 61.5 12.0631V0.936914C61.5 0.418945 61.0684 0 60.5377 0ZM52.3568 11.0779H50.4271V4.87246H52.3568V11.0779ZM51.392 4.02695C50.7725 4.02695 50.2723 3.52676 50.2723 2.90977C50.2723 2.29277 50.7725 1.79258 51.392 1.79258C52.009 1.79258 52.5092 2.29277 52.5092 2.90977C52.5092 3.52422 52.009 4.02695 51.392 4.02695ZM59.5779 11.0779H57.6508V8.06152C57.6508 7.34297 57.6381 6.41621 56.6479 6.41621C55.6449 6.41621 55.4926 7.20078 55.4926 8.01074V11.0779H53.568V4.87246H55.4164V5.72051H55.4418C55.6982 5.23301 56.3279 4.71758 57.2648 4.71758C59.2174 4.71758 59.5779 6.00234 59.5779 7.67305V11.0779Z" fill="white"/>
</g>
<defs>
<clipPath id="clip0_759_561">
<rect width="13" height="13" fill="white"/>
</clipPath>
<clipPath id="clip1_759_561">
<rect width="13" height="13" fill="white" transform="translate(24.25)"/>
</clipPath>
<clipPath id="clip2_759_561">
<rect width="13" height="13" fill="white" transform="translate(48.5)"/>
</clipPath>
</defs>
</svg>
